<?xml version="1.0" ?><svg id="Layer_1" style="enable-background:new 0 0 120 120;" version="1.1" viewBox="0 0 120 120" xml:space="preserve" xmlns="http://www.w3.org/2000/svg" xmlns:xlink="http://www.w3.org/1999/xlink"><style type="text/css">
	.st0{fill:#38A9E8;}
	.st1{fill:#FFFCF1;}
	.st2{fill:#FFB562;}
	.st3{fill:#FFCA3B;}
	.st4{fill:#F87474;}
	.st5{fill:#3AB0FF;}
	.st6{fill:#FFC91D;}
	.st7{fill:#EDB61D;}
</style><g><path class="st0" d="M37.6,55.1V41.3h44.7v13.8c0,2.4-11.2,8-22.4,8S37.6,57.5,37.6,55.1z"/><g><path class="st1" d="M33.7,75.9h56V58.2h-56c-4.9,0-8.8,3.9-8.8,8.8l0,0C24.9,71.9,28.8,75.9,33.7,75.9z"/><path class="st2" d="M33.4,78.5c-6.3,0-11.4-5.1-11.4-11.4s5.1-11.4,11.4-11.4h56.1c1.3,0,2.4,1.1,2.4,2.4c0,1.3-1.1,2.4-2.4,2.4    H33.4c-3.6,0-6.5,2.9-6.5,6.5c0,3.6,2.9,6.5,6.5,6.5h56.1c1.3,0,2.4,1.1,2.4,2.4c0,1.3-1.1,2.4-2.4,2.4H33.4z"/><polygon class="st3" points="44.2,70.6 39.9,67.7 35.7,70.6 35.7,60.6 44.2,60.6   "/><path class="st1" d="M33.7,98.6h56V80.9h-56c-4.9,0-8.8,3.9-8.8,8.8l0,0C24.9,94.6,28.8,98.6,33.7,98.6z"/><path class="st4" d="M33.4,101.2c-6.3,0-11.4-5.1-11.4-11.4s5.1-11.4,11.4-11.4h56.1c1.3,0,2.4,1.1,2.4,2.4c0,1.3-1.1,2.4-2.4,2.4    H33.4c-3.6,0-6.5,2.9-6.5,6.5s2.9,6.5,6.5,6.5h56.1c1.3,0,2.4,1.1,2.4,2.4s-1.1,2.4-2.4,2.4C89.5,101.2,33.4,101.2,33.4,101.2z"/><polygon class="st3" points="84.4,93.2 80.2,90.3 76,93.2 76,83.4 84.4,83.4   "/></g><path class="st5" d="M19.3,35.2l40.1,13.3c0.4,0.2,0.9,0.2,1.2,0l40.1-13.3c1.8-0.6,1.8-3.2,0-3.8l-40-12.6c-0.3-0.1-0.8-0.1-1.2,0   l-40,12.6C17.5,32.1,17.4,34.6,19.3,35.2z"/><g><path class="st6" d="M91.1,49.7c0.6,0,1.1-0.5,1.1-1.1V38.5c0-0.5-0.4-1-1-1.1l-31.1-4.7c-0.6-0.1-1.1,0.3-1.2,1    c-0.1,0.6,0.3,1.1,1,1.2L90,39.3v9.2C89.9,49.2,90.5,49.7,91.1,49.7z"/></g><path class="st6" d="M93.2,57.8h-3.8c-0.8,0-1.4-0.8-1.1-1.5l1.7-6.1h2.6l1.7,6.1C94.5,57,94,57.8,93.2,57.8z"/><ellipse class="st7" cx="60" cy="33.7" rx="3.8" ry="2.1"/><circle class="st7" cx="91" cy="49.6" r="2.7"/></g></svg>